<?xml version="1.0" encoding="utf-8"?>
<!-- Generator: Adobe Illustrator 26.0.0, SVG Export Plug-In . SVG Version: 6.00 Build 0)  -->
<svg version="1.1" id="レイヤー_1" xmlns="http://www.w3.org/2000/svg" xmlns:xlink="http://www.w3.org/1999/xlink" x="0px"
	 y="0px" viewBox="0 0 320 320" style="enable-background:new 0 0 320 320;" xml:space="preserve">
<style type="text/css">
	.st0{fill:#4CC764;}
	.st1{fill:#FFFFFF;}
</style>
<g>
	<circle class="st0" cx="160" cy="160" r="160"/>
	<g>
		<g>
			<g>
				<path class="st1" d="M266.705,150.681c0-47.795-47.916-86.681-106.814-86.681c-58.893,0-106.813,38.886-106.813,86.681
					c0,42.849,38,78.734,89.33,85.518c3.478,0.752,8.213,2.294,9.41,5.268c1.077,2.699,0.705,6.93,0.346,9.658
					c0,0-1.253,7.537-1.525,9.144c-0.466,2.699-2.147,10.561,9.252,5.758c11.401-4.804,61.513-36.221,83.923-62.014h-0.005
					C259.288,187.037,266.705,169.809,266.705,150.681z"/>
			</g>
			<g>
				<path class="st0" d="M231.17,178.28c1.126,0,2.04-0.913,2.04-2.039v-7.575c0-1.122-0.918-2.039-2.04-2.039h-20.394v-7.866
					h20.394c1.126,0,2.04-0.913,2.04-2.04v-7.575c0-1.122-0.918-2.04-2.04-2.04h-20.394v-7.866h20.394c1.126,0,2.04-0.913,2.04-2.04
					v-7.575c0-1.122-0.918-2.039-2.04-2.039h-29.969h-0.04c-1.126,0-2.039,0.913-2.039,2.039v0.044v0.003v46.533v0.003v0.033
					c0,1.126,0.913,2.039,2.039,2.039h0.04H231.17z"/>
				<path class="st0" d="M120.166,178.28c1.126,0,2.039-0.913,2.039-2.039v-7.575c0-1.122-0.918-2.039-2.039-2.039H99.772v-37.001
					c0-1.122-0.918-2.039-2.039-2.039h-7.575c-1.126,0-2.039,0.913-2.039,2.039v46.58v0.003v0.033c0,1.126,0.913,2.039,2.039,2.039
					h0.04H120.166z"/>
				<path class="st0" d="M138.232,127.585h-7.575c-1.126,0-2.039,0.913-2.039,2.039v46.616c0,1.126,0.913,2.039,2.039,2.039h7.575
					c1.126,0,2.039-0.913,2.039-2.039v-46.616C140.271,128.498,139.358,127.585,138.232,127.585z"/>
				<path class="st0" d="M189.801,127.585h-7.575c-1.126,0-2.039,0.913-2.039,2.039v27.687l-21.328-28.803
					c-0.05-0.074-0.105-0.144-0.164-0.211c-0.004-0.005-0.009-0.01-0.013-0.015c-0.039-0.044-0.08-0.086-0.123-0.127
					c-0.013-0.012-0.026-0.023-0.038-0.035c-0.036-0.032-0.073-0.064-0.111-0.094c-0.018-0.014-0.037-0.027-0.055-0.041
					c-0.035-0.026-0.071-0.05-0.108-0.074c-0.021-0.013-0.042-0.026-0.062-0.038c-0.037-0.022-0.074-0.043-0.113-0.062
					c-0.021-0.011-0.043-0.021-0.065-0.031c-0.039-0.018-0.079-0.035-0.119-0.051c-0.022-0.008-0.044-0.016-0.067-0.024
					c-0.041-0.014-0.082-0.028-0.124-0.04c-0.024-0.007-0.048-0.013-0.072-0.018c-0.04-0.01-0.08-0.019-0.121-0.026
					c-0.029-0.005-0.058-0.009-0.087-0.013c-0.037-0.005-0.073-0.01-0.11-0.014c-0.036-0.003-0.072-0.004-0.109-0.005
					c-0.023-0.001-0.046-0.004-0.07-0.004h-7.533c-1.126,0-2.039,0.913-2.039,2.039v46.616c0,1.126,0.913,2.039,2.039,2.039h7.575
					c1.126,0,2.039-0.913,2.039-2.039v-27.679l21.355,28.839c0.147,0.208,0.327,0.378,0.526,0.514
					c0.008,0.006,0.016,0.011,0.024,0.016c0.042,0.028,0.085,0.054,0.128,0.078c0.019,0.011,0.039,0.022,0.059,0.033
					c0.032,0.017,0.065,0.033,0.099,0.048c0.033,0.015,0.066,0.03,0.1,0.043c0.021,0.008,0.043,0.016,0.065,0.024
					c0.046,0.016,0.093,0.032,0.141,0.045c0.009,0.003,0.019,0.005,0.029,0.008c0.17,0.045,0.349,0.071,0.533,0.071h7.534
					c1.126,0,2.039-0.913,2.039-2.039v-46.616C191.84,128.498,190.927,127.585,189.801,127.585z"/>
			</g>
		</g>
	</g>
</g>
</svg>
