<?xml version="1.0" encoding="utf-8"?>
<!-- Generator: Adobe Illustrator 26.0.0, SVG Export Plug-In . SVG Version: 6.00 Build 0)  -->
<svg version="1.1" id="レイヤー_1" xmlns="http://www.w3.org/2000/svg" xmlns:xlink="http://www.w3.org/1999/xlink" x="0px"
	 y="0px" viewBox="0 0 57.667 13" style="enable-background:new 0 0 57.667 13;" xml:space="preserve">
<style type="text/css">
	.st0{fill:#FFFFFF;}
</style>
<path class="st0" d="M9.46,1.554v1.312H7.075v9.716H5.73V5.396L2.353,11.75H0.704L0,10.438h1.568l4.034-7.571H0.24V1.554h5.49V0.417
	h1.345v1.137H9.46z"/>
<path class="st0" d="M21.73,0.994l-0.673,1.281H16.4V0.994H21.73z M21.603,4.163L20.93,5.444H16.4V4.163H21.603z M23.987,0.994H25.3
	v4.386l-3.521,6.627h-3.938l-0.704-1.312h3.857l2.993-5.634V0.994z"/>
<path class="st0" d="M37.042,12.006h-2.77l-0.704-1.312h2.657l3.041-5.747h-6.994V3.635h9.22L37.042,12.006z M40.579,0.802v1.312
	H33.12V0.802H40.579z"/>
<path class="st0" d="M51.488,2.883v7.843h5.314v1.281h-6.659V2.883h-1.904V1.538h1.904V0.417h1.345v1.121h6.179l-3.89,7.315h-1.217
	l-0.672-1.281h1.088l2.481-4.689H51.488z"/>
</svg>
