<?xml version="1.0" encoding="utf-8"?>
<!-- Generator: Adobe Illustrator 26.0.0, SVG Export Plug-In . SVG Version: 6.00 Build 0)  -->
<svg version="1.1" id="レイヤー_1" xmlns="http://www.w3.org/2000/svg" xmlns:xlink="http://www.w3.org/1999/xlink" x="0px"
	 y="0px" viewBox="0 0 72.464 13" style="enable-background:new 0 0 72.464 13;" xml:space="preserve">
<style type="text/css">
	.st0{fill:#FFFFFF;}
</style>
<path class="st0" d="M1.686,5.95H0.429V1.863L0,1.068h1.686V5.95z M7.681,1.068h1.304v4.357l-3.499,6.584H1.416l-0.699-1.304h3.992
	l2.974-5.598L7.681,1.068L7.681,1.068z M3.134,5.95V1.863L2.704,1.068h1.685v4.881L3.134,5.95L3.134,5.95z"/>
<path class="st0" d="M24.994,1.8h-2.736l-4.182,7.872h-1.384l-0.699-1.304h1.272l4.183-7.872h3.547V1.8z M20.621,12.582V5.011h1.336
	v7.57L20.621,12.582L20.621,12.582z"/>
<path class="st0" d="M34.277,7.301h-1.161V4.137l-0.35-0.652h1.511L34.277,7.301L34.277,7.301z M38.459,3.485h1.208v3.594
	l-2.624,4.93h-3.07l-0.652-1.208h2.991l2.147-4.008V3.485z M35.214,7.301v-3.18L34.88,3.484h1.494V7.3L35.214,7.301L35.214,7.301z"
	/>
<path class="st0" d="M56.406,5.059l-3.689,6.95h-3.482l-0.699-1.304h3.403l3.149-5.916V2.372h-3.276l-0.382,0.699l1.94,3.641
	L52.653,8.08l-1.939-3.641l-0.715,1.336h-1.463l-0.7-1.304h1.383l1.813-3.403h5.375C56.406,1.069,56.406,5.059,56.406,5.059z"/>
<path class="st0" d="M63.907,7.206V5.871h8.556l-0.716,1.335H63.907z"/>
</svg>
